HIERARCHY
ROOT Hips
{
	OFFSET 45.733799 11.391583 96.812401
	CHANNELS 6 Xposition Yposition Zposition Xrotation Yrotation Zrotation
	JOINT spine
	{
		OFFSET 0.000000 -0.458068 7.965683
		CHANNELS 3 Xrotation Yrotation Zrotation
		JOINT spine1
		{
			OFFSET 0.000000 -0.000002 10.243103
			CHANNELS 3 Xrotation Yrotation Zrotation
			JOINT spine2
			{
				OFFSET 0.000000 -0.000001 9.814751
				CHANNELS 3 Xrotation Yrotation Zrotation
				JOINT Neck
				{
					OFFSET 0.000000 -1.201385 25.198608
					CHANNELS 3 Xrotation Yrotation Zrotation
					JOINT Head
					{
						OFFSET 0.000000 -0.000001 7.613144
						CHANNELS 3 Xrotation Yrotation Zrotation
						End Site
						{
							OFFSET 0.000000 6.077327 18.428101
						}
					}
				}
				JOINT RightShoulder
				{
					OFFSET -4.132702 0.575449 10.599197
					CHANNELS 3 Xrotation Yrotation Zrotation
					JOINT RightArm
					{
						OFFSET 0.000000 -0.000003 13.901794
						CHANNELS 3 Xrotation Yrotation Zrotation
						JOINT RightArmRoll
						{
							OFFSET 0.000000 -0.000001 7.017883
							CHANNELS 3 Xrotation Yrotation Zrotation
							JOINT RightForeArm
							{
								OFFSET 0.000000 -0.000003 20.440598
								CHANNELS 3 Xrotation Yrotation Zrotation
								JOINT RightForeArmRoll
								{
									OFFSET 0.000000 -0.000002 7.875153
									CHANNELS 3 Xrotation Yrotation Zrotation
									JOINT RightHand
									{
										OFFSET 0.000000 -0.000002 15.803696
										CHANNELS 3 Xrotation Yrotation Zrotation
										End Site
										{
											OFFSET 0.000000 0.000000 0.100006
										}
									}
								}
							}
						}
					}
				}
				JOINT LeftShoulder
				{
					OFFSET 4.132702 0.575449 10.599197
					CHANNELS 3 Xrotation Yrotation Zrotation
					JOINT LeftArm
					{
						OFFSET 0.000000 -0.000003 13.901794
						CHANNELS 3 Xrotation Yrotation Zrotation
						JOINT LeftArmRoll
						{
							OFFSET 0.000000 -0.000001 7.017883
							CHANNELS 3 Xrotation Yrotation Zrotation
							JOINT LeftForeArm
							{
								OFFSET 0.000000 -0.000003 20.440598
								CHANNELS 3 Xrotation Yrotation Zrotation
								JOINT LeftForeArmRoll
								{
									OFFSET 0.000000 -0.000002 7.875153
									CHANNELS 3 Xrotation Yrotation Zrotation
									JOINT LeftHand
									{
										OFFSET 0.000000 -0.000002 15.803696
										CHANNELS 3 Xrotation Yrotation Zrotation
										End Site
										{
											OFFSET 0.000000 0.000000 0.100006
										}
									}
								}
							}
						}
					}
				}
			}
		}
	}
	JOINT RightUpLeg
	{
		OFFSET -7.060482 1.086101 -1.294701
		CHANNELS 3 Xrotation Yrotation Zrotation
		JOINT RightUpLegRoll
		{
			OFFSET 0.000000 -0.000003 18.530800
			CHANNELS 3 Xrotation Yrotation Zrotation
			JOINT RightLeg
			{
				OFFSET 0.000000 0.000003 -22.947601
				CHANNELS 3 Xrotation Yrotation Zrotation
				JOINT RightLegRoll
				{
					OFFSET 0.000000 -0.000003 23.022598
					CHANNELS 3 Xrotation Yrotation Zrotation
					JOINT RightFoot
					{
						OFFSET 0.000000 -0.000004 19.162498
						CHANNELS 3 Xrotation Yrotation Zrotation
						JOINT RightToeBase
						{
							OFFSET 0.000000 -0.000003 16.018799
							CHANNELS 3 Xrotation Yrotation Zrotation
							End Site
							{
								OFFSET 0.006790 0.894206 7.757812
							}
						}
					}
				}
			}
		}
	}
	JOINT LeftUpLeg
	{
		OFFSET 7.060482 1.086101 -1.294701
		CHANNELS 3 Xrotation Yrotation Zrotation
		JOINT LeftUpLegRoll
		{
			OFFSET 0.000000 -0.000003 18.530899
			CHANNELS 3 Xrotation Yrotation Zrotation
			JOINT LeftLeg
			{
				OFFSET 0.000000 -0.000004 22.947495
				CHANNELS 3 Xrotation Yrotation Zrotation
				JOINT LeftLegRoll
				{
					OFFSET 0.000000 -0.000004 23.235504
					CHANNELS 3 Xrotation Yrotation Zrotation
					JOINT LeftFoot
					{
						OFFSET 0.000000 -0.000004 18.949600
						CHANNELS 3 Xrotation Yrotation Zrotation
						JOINT LeftToeBase
						{
							OFFSET 0.000000 -0.000002 16.018799
							CHANNELS 3 Xrotation Yrotation Zrotation
							End Site
							{
								OFFSET -0.030430 0.894205 7.757812
							}
						}
					}
				}
			}
		}
	}
}
MOTION
Frames: 11
Frame Time: 0.041667
51.507999 5.657827 112.420990 4.992559 -1.635853 -1.114035 0.700621 -0.149974 -0.306642 5.403270 -0.310257 -0.609677 7.048327 -0.317537 -0.605918 -20.403582 15.038248 0.287649 25.014456 -14.875244 -0.146212 -11.154857 -62.320203 -13.343278 144.320640 -69.829067 140.775089 -0.000000 -0.000001 0.000000 43.500532 -10.006324 2.201595 0.000006 0.000027 -3.000000 -5.000226 -7.998834 0.000176 -10.074422 57.772820 11.825007 -32.373235 116.552998 50.196932 0.000001 -0.000000 0.000000 50.969515 12.719670 -3.577061 0.000002 -0.000013 3.000001 -5.000156 7.998733 -0.000159 -14.278729 -176.980078 0.493719 -179.999991 0.000005 -0.938996 167.031525 -1.389644 -0.848992 -0.000007 0.000002 0.099318 67.427320 6.896063 2.223558 25.456851 -7.355619 -0.000002 -19.784905 175.854094 -0.181041 -0.000003 -0.000004 -0.929416 -22.194672 3.196825 1.210702 -0.000002 -0.000002 -0.329494 69.679425 -6.866543 -2.149802 25.456952 7.355611 0.000001 
51.504601 5.666815 112.157982 5.038675 -1.646686 -1.140504 0.694779 -0.147376 -0.303783 5.391607 -0.305141 -0.604029 7.036665 -0.312353 -0.600331 -20.233185 14.996114 0.278603 24.976327 -14.815386 -0.141482 -11.131205 -62.373185 -13.318383 143.999184 -69.847427 140.483918 0.000000 0.000000 0.000000 43.395955 -10.021050 2.202081 0.000005 0.000027 -3.000001 -5.000217 -7.998835 0.000176 -10.118338 57.748348 11.875785 -32.322914 116.548067 50.088144 0.000001 -0.000000 0.000001 50.979238 12.687417 -3.562229 0.000002 -0.000012 3.000001 -5.000159 7.998734 -0.000156 -14.379374 -176.958194 0.496825 -179.999991 0.000005 -0.937999 166.949535 -1.398926 -0.854234 -0.000007 0.000002 0.101743 67.445304 6.895520 2.223225 25.456854 -7.355619 -0.000003 -19.890969 175.848370 -0.191220 -0.000005 -0.000005 -0.928907 -22.268601 3.213883 1.217854 -0.000001 -0.000002 -0.329748 69.668011 -6.866938 -2.149381 25.456955 7.355613 0.000001 
51.509701 5.685422 111.907997 5.082779 -1.655617 -1.168132 0.689800 -0.145546 -0.300931 5.381665 -0.301506 -0.598379 7.026731 -0.308651 -0.594724 -20.075347 14.961231 0.272727 24.944201 -14.760788 -0.135318 -11.107856 -62.421160 -13.293613 143.684613 -69.862153 140.199168 0.000000 0.000000 0.000000 43.298311 -10.034689 2.202457 0.000007 0.000027 -3.000000 -5.000224 -7.998833 0.000176 -10.165955 57.724975 11.931060 -32.278316 116.543490 49.989120 0.000001 0.000000 0.000001 50.991115 12.656373 -3.548230 -0.000001 -0.000012 2.999999 -5.000152 7.998732 -0.000161 -14.479485 -176.939206 0.498988 -179.999991 0.000005 -0.937001 166.860866 -1.406219 -0.859215 -0.000006 0.000002 0.104216 67.463083 6.895026 2.222911 25.456854 -7.355619 -0.000003 -19.995531 175.838904 -0.202992 -0.000005 -0.000005 -0.928393 -22.346427 3.230659 1.225222 -0.000002 -0.000002 -0.330147 69.656933 -6.867379 -2.148845 25.456959 7.355613 0.000000 
51.502197 5.699544 111.636993 5.124664 -1.662402 -1.197054 0.685796 -0.144614 -0.298079 5.373672 -0.299599 -0.592702 7.018730 -0.306677 -0.589071 -19.931330 14.935240 0.270313 24.918825 -14.712475 -0.127613 -11.084612 -62.462865 -13.268695 143.380369 -69.871695 139.925291 0.000000 0.000000 0.000000 43.207500 -10.046815 2.202510 0.000007 0.000027 -3.000000 -5.000221 -7.998832 0.000176 -10.217767 57.703344 11.991474 -32.243168 116.537944 49.904261 0.000001 0.000001 -0.000001 51.004905 12.626807 -3.535029 0.000002 -0.000011 3.000001 -5.000159 7.998732 -0.000159 -14.578947 -176.924125 0.500237 -179.999991 0.000005 -0.937002 166.764915 -1.412476 -0.864167 -0.000007 0.000002 0.106731 67.480657 6.894502 2.222707 25.456851 -7.355619 -0.000003 -20.098491 175.825626 -0.216615 -0.000005 -0.000005 -0.927870 -22.428468 3.247163 1.232828 -0.000002 -0.000002 -0.330709 69.646216 -6.867931 -2.148109 25.456957 7.355613 0.000001 
51.524200 5.689334 111.384995 5.163033 -1.667939 -1.227182 0.683111 -0.144347 -0.295256 5.368313 -0.298959 -0.587071 7.013370 -0.305969 -0.583449 -19.802262 14.917154 0.271399 24.902149 -14.670422 -0.117933 -11.062933 -62.499885 -13.245377 143.084062 -69.876674 139.658217 0.000000 -0.000000 -0.000000 43.124722 -10.057761 2.202407 0.000005 0.000027 -3.000001 -5.000224 -7.998834 0.000176 -10.274779 57.681774 12.058113 -32.215489 116.533204 49.831428 0.000000 -0.000001 0.000000 51.020376 12.598304 -3.522545 -0.000001 -0.000011 2.999999 -5.000160 7.998733 -0.000157 -14.675580 -176.910956 0.500319 -179.999991 0.000005 -0.936004 166.664047 -1.416754 -0.869814 -0.000007 0.000002 0.109275 67.499071 6.894022 2.222257 25.456854 -7.355620 -0.000002 -20.196719 175.809479 -0.231981 -0.000006 -0.000004 -0.927356 -22.511207 3.263724 1.240553 -0.000002 -0.000002 -0.331367 69.635192 -6.868539 -2.147400 25.456955 7.355613 0.000001 
51.526405 5.696756 111.116989 5.197123 -1.673117 -1.258351 0.681879 -0.144432 -0.292503 5.365853 -0.298956 -0.581570 7.010919 -0.305900 -0.577948 -19.687168 14.904644 0.275588 24.895148 -14.633241 -0.106099 -11.044045 -62.534856 -13.225210 142.785788 -69.881858 139.385105 0.000000 0.000001 0.000000 43.050624 -10.068260 2.202421 0.000008 0.000027 -3.000001 -5.000225 -7.998833 0.000176 -10.337134 57.658319 12.131043 -32.192198 116.530691 49.766367 0.000001 -0.000000 -0.000002 51.037513 12.570051 -3.510173 0.000002 -0.000009 2.999999 -5.000157 7.998734 -0.000157 -14.767683 -176.899687 0.499717 -179.999991 0.000005 -0.936004 166.560310 -1.419067 -0.876068 -0.000007 0.000002 0.111849 67.519166 6.893504 2.221696 25.456856 -7.355620 -0.000003 -20.288165 175.792226 -0.249120 -0.000005 -0.000005 -0.926876 -22.592265 3.280564 1.248312 -0.000002 -0.000002 -0.332055 69.623240 -6.869210 -2.146763 25.456953 7.355613 0.000001 
51.540195 5.709715 110.844994 5.227607 -1.677756 -1.290510 0.681886 -0.144863 -0.289813 5.365873 -0.299595 -0.576187 7.010937 -0.306475 -0.572558 -19.584497 14.896935 0.282479 24.896221 -14.600016 -0.092553 -11.027578 -62.568112 -13.207775 142.489289 -69.885765 139.110012 -0.000000 -0.000000 0.000000 42.984822 -10.078534 2.202703 0.000004 0.000028 -3.000001 -5.000219 -7.998834 0.000176 -10.404063 57.633232 12.209330 -32.171933 116.530049 49.707586 0.000000 -0.000000 0.000001 51.056617 12.541981 -3.498066 0.000003 -0.000011 3.000000 -5.000158 7.998732 -0.000160 -14.856382 -176.888403 0.497974 -179.999991 0.000005 -0.934993 166.452980 -1.418430 -0.880734 -0.000007 0.000002 0.114464 67.540332 6.893084 2.220887 25.456851 -7.355620 -0.000003 -20.374155 175.772965 -0.267645 -0.000004 -0.000004 -0.926424 -22.672823 3.297535 1.256140 -0.000002 -0.000002 -0.332787 69.610583 -6.869988 -2.146087 25.456953 7.355612 0.000001 
51.560902 5.708974 110.571983 5.255150 -1.681666 -1.323597 0.682915 -0.145639 -0.287181 5.367934 -0.300879 -0.570912 7.013001 -0.307696 -0.567267 -19.492699 14.893149 0.291673 24.903952 -14.570178 -0.077532 -11.013093 -62.599797 -13.192556 142.193405 -69.889310 138.831723 0.000000 0.000001 0.000000 42.926714 -10.088760 2.203307 0.000006 0.000028 -3.000000 -5.000222 -7.998833 0.000175 -10.474798 57.606895 12.292105 -32.153730 116.531046 49.653607 0.000001 -0.000000 0.000000 51.077695 12.514088 -3.486127 -0.000001 -0.000012 2.999999 -5.000154 7.998732 -0.000160 -14.942659 -176.879005 0.495687 -179.999991 0.000005 -0.934993 166.341443 -1.416779 -0.887245 -0.000007 0.000002 0.117129 67.562435 6.892630 2.220013 25.456854 -7.355619 -0.000002 -20.456067 175.752693 -0.287864 -0.000004 -0.000005 -0.926000 -22.753995 3.314509 1.264070 -0.000003 -0.000002 -0.333575 69.597435 -6.870844 -2.145356 25.456955 7.355613 0.000001 
51.577095 5.717174 110.286995 5.280429 -1.684664 -1.357552 0.684747 -0.146758 -0.284602 5.371605 -0.302811 -0.565732 7.016675 -0.309566 -0.562065 -19.410262 14.892679 0.302858 24.916993 -14.542873 -0.061379 -11.000105 -62.630144 -13.179039 141.899133 -69.892732 138.551180 0.000000 0.000001 0.000000 42.875823 -10.098952 2.204165 0.000005 0.000027 -3.000001 -5.000222 -7.998833 0.000176 -10.548527 57.579348 12.378408 -32.138151 116.531592 49.605021 0.000001 -0.000001 0.000000 51.101030 12.486303 -3.474314 -0.000000 -0.000012 3.000001 -5.000156 7.998731 -0.000160 -15.027401 -176.871560 0.492927 -179.999991 0.000005 -0.934993 166.225030 -1.414140 -0.892653 -0.000007 0.000002 0.119855 67.585057 6.892142 2.219101 25.456854 -7.355620 -0.000002 -20.535257 175.729593 -0.309058 -0.000004 -0.000005 -0.925598 -22.836966 3.331336 1.272135 -0.000003 -0.000002 -0.334434 69.584178 -6.871729 -2.144537 25.456953 7.355613 0.000001 
51.535801 5.732608 109.992989 5.304082 -1.686552 -1.392345 0.687167 -0.148220 -0.282069 5.376447 -0.305394 -0.560638 7.021513 -0.312088 -0.556940 -19.335535 14.894641 0.315603 24.933988 -14.517330 -0.044399 -10.988232 -62.659390 -13.166755 141.608099 -69.895272 138.270281 -0.000000 -0.000001 -0.000000 42.831447 -10.109448 2.205423 0.000005 0.000027 -3.000001 -5.000225 -7.998835 0.000176 -10.624511 57.550962 12.467376 -32.123339 116.532344 49.559518 0.000001 0.000001 -0.000001 51.126841 12.458630 -3.462754 -0.000002 -0.000013 2.999997 -5.000156 7.998735 -0.000158 -15.111618 -176.866014 0.489778 -179.999991 0.000005 -0.933996 166.103111 -1.409514 -0.898702 -0.000007 0.000002 0.122652 67.607897 6.891661 2.218177 25.456851 -7.355620 -0.000003 -20.613207 175.704595 -0.331514 -0.000003 -0.000005 -0.925216 -22.923045 3.347874 1.280381 -0.000001 -0.000002 -0.335377 69.570927 -6.872644 -2.143724 25.456950 7.355613 0.000001 
51.560196 5.736395 109.702995 5.326798 -1.687146 -1.427905 0.689959 -0.150021 -0.279578 5.382028 -0.308633 -0.555619 7.027096 -0.315267 -0.551882 -19.267190 14.898212 0.329615 24.953504 -14.492888 -0.026862 -10.977041 -62.687872 -13.155233 141.316190 -69.899514 137.984561 0.000000 -0.000000 0.000000 42.793201 -10.120241 2.207044 0.000009 0.000027 -3.000000 -5.000223 -7.998834 0.000176 -10.702005 57.522091 12.558122 -32.107954 116.532931 49.515306 0.000000 -0.000001 0.000000 51.155398 12.430934 -3.451216 0.000002 -0.000013 2.999999 -5.000155 7.998732 -0.000162 -15.196408 -176.862448 0.486305 -179.999991 0.000005 -0.933996 165.974895 -1.405828 -0.905133 -0.000007 0.000002 0.125529 67.630416 6.891178 2.217270 25.456853 -7.355621 -0.000002 -20.691145 175.676823 -0.354841 -0.000005 -0.000005 -0.924852 -23.013230 3.363964 1.288826 -0.000002 -0.000002 -0.336420 69.558025 -6.873639 -2.142803 25.456955 7.355613 0.000001 
